<svg xmlns="http://www.w3.org/2000/svg" viewBox="0 0 64 80" x="0px" y="0px">
    <defs>
        <style>
            .fil0 {
                fill: #ff0000;
                fill-rule: nonzero
            }
        </style>
    </defs>
    <g data-name="Layer 21" class="fil0">
        <path
            d="M55.8,13.91a5.12,5.12,0,0,0-5.2,0L39.55,20.28V18.4a5.23,5.23,0,0,0-7.8-4.5L8.2,27.5a5.19,5.19,0,0,0,0,9L31.75,50.1a5.23,5.23,0,0,0,7.8-4.5V43.72L50.6,50.1a5.23,5.23,0,0,0,7.8-4.5V18.4A5.13,5.13,0,0,0,55.8,13.91ZM36.55,45.6a2.21,2.21,0,0,1-3.3,1.9L9.7,33.9a2.19,2.19,0,0,1,0-3.8L33.25,16.5a2.21,2.21,0,0,1,3.3,1.9Zm18.85,0a2.21,2.21,0,0,1-3.3,1.9L39.55,40.25V23.75L52.09,16.5a2.22,2.22,0,0,1,3.31,1.9Z" />
    </g>
</svg>