<svg xmlns="http://www.w3.org/2000/svg" data-name="Layer 1" viewBox="0 0 100 125" x="0px" y="0px">
    <path class="settings" style="fill: #ff0000"
        d="M89.28,42.49H80.05a31.34,31.34,0,0,0-3.58-8.35l6.62-6.61a1.88,1.88,0,0,0,0-2.62l-8-8a1.86,1.86,0,0,0-2.62,0l-6.7,6.7a30.8,30.8,0,0,0-8.26-3.4V10.7a1.84,1.84,0,0,0-1.85-1.84H44.33a1.85,1.85,0,0,0-1.85,1.84v9.45a31.32,31.32,0,0,0-8.33,3.37l-6.62-6.61a1.86,1.86,0,0,0-2.62,0l-8,8a1.84,1.84,0,0,0,0,2.62L23.37,34a30.9,30.9,0,0,0-3.66,8.49h-9a1.84,1.84,0,0,0-1.84,1.85V55.66a1.85,1.85,0,0,0,1.84,1.85h8.79A30.84,30.84,0,0,0,23,66.35l-6.12,6.11a1.84,1.84,0,0,0,0,2.62l8,8a1.86,1.86,0,0,0,2.62,0l6-6a31.37,31.37,0,0,0,8.92,3.72v8.51a1.86,1.86,0,0,0,1.85,1.86H55.65a1.85,1.85,0,0,0,1.85-1.86V80.71A30.58,30.58,0,0,0,66.34,77l6.12,6.14a1.86,1.86,0,0,0,2.62,0l8-8a1.88,1.88,0,0,0,0-2.62L76.81,66.2a30.62,30.62,0,0,0,3.46-8.69h9a1.86,1.86,0,0,0,1.86-1.85V44.34A1.85,1.85,0,0,0,89.28,42.49ZM50,68.14A18.14,18.14,0,1,1,68.13,50,18.14,18.14,0,0,1,50,68.14Z" />
</svg>